<?xml version="1.0" encoding="utf-8"?>
<!-- Generator: Adobe Illustrator 26.5.0, SVG Export Plug-In . SVG Version: 6.00 Build 0)  -->
<svg version="1.1" id="Layer_1" xmlns="http://www.w3.org/2000/svg" xmlns:xlink="http://www.w3.org/1999/xlink" x="0px" y="0px"
	 viewBox="0 0 406.8 132.2" style="enable-background:new 0 0 406.8 132.2;" xml:space="preserve">
<style type="text/css">
	.st0{fill:#61A60E;}
	.st1{fill:none;stroke:#61A60E;stroke-width:0.25;stroke-miterlimit:10;}
	.st2{fill:#004438;}
	.st3{fill:none;stroke:#004438;stroke-width:0.843;stroke-miterlimit:10;}
	.st4{fill:#9D9D9C;}
</style>
<g>
	<path class="st0" d="M68.1,8.3c-0.1-0.3-0.3-0.7-0.4-1c-1.9-3.8-6.6-4.2-9.3-1c-2.6,3-2.2,9.3,0.8,12.2c2.3,2.3,6.2,2.4,8.1-0.8
		C69.1,14.7,69.4,11.5,68.1,8.3 M70.6,7c1.6,4.6,1.1,9-2.3,12.6c-1.3,1.4-3,2.5-5,2.7c-2.9,0.3-5.2-1-6.7-3.4
		c-2.3-3.5-2.5-7.3-0.9-11.2c0.5-1.1,1.1-2.3,1.8-3.3c3.6-4.6,9.9-4,12.5,1.2C70.2,6.1,70.4,6.5,70.6,7"/>
	<path class="st1" d="M68.1,8.3c-0.1-0.3-0.3-0.7-0.4-1c-1.9-3.8-6.6-4.2-9.3-1c-2.6,3-2.2,9.3,0.8,12.2c2.3,2.3,6.2,2.4,8.1-0.8
		C69.1,14.7,69.4,11.5,68.1,8.3z M70.6,7c1.6,4.6,1.1,9-2.3,12.6c-1.3,1.4-3,2.5-5,2.7c-2.9,0.3-5.2-1-6.7-3.4
		c-2.3-3.5-2.5-7.3-0.9-11.2c0.5-1.1,1.1-2.3,1.8-3.3c3.6-4.6,9.9-4,12.5,1.2C70.2,6.1,70.4,6.5,70.6,7z"/>
	<path class="st0" d="M3.8,36.3c1.6,3.2,4.2,5.2,7.8,5.8c3.5,0.6,5.6-2.3,5.8-4.6c0.1-1.9-0.3-3.6-1.4-5.2c-1.5-2.2-3.3-3.9-6-4.4
		c-3-0.6-5.4,0.5-6.5,3C2.7,32.8,3,34.6,3.8,36.3 M18.9,32.9c1.3,3.2,1.5,6.1-0.9,8.8c-1.6,1.8-3.8,2.3-6,2.3
		C6.2,44.2,0.7,39.3,0.2,33.6c-0.4-4.4,2.7-8,7.2-7.8C12.6,26,16.5,28.4,18.9,32.9"/>
	<path class="st1" d="M3.8,36.3c1.6,3.2,4.2,5.2,7.8,5.8c3.5,0.6,5.6-2.3,5.8-4.6c0.1-1.9-0.3-3.6-1.4-5.2c-1.5-2.2-3.3-3.9-6-4.4
		c-3-0.6-5.4,0.5-6.5,3C2.7,32.8,3,34.6,3.8,36.3z M18.9,32.9c1.3,3.2,1.5,6.1-0.9,8.8c-1.6,1.8-3.8,2.3-6,2.3
		C6.2,44.2,0.7,39.3,0.2,33.6c-0.4-4.4,2.7-8,7.2-7.8C12.6,26,16.5,28.4,18.9,32.9z"/>
	<path class="st0" d="M29.3,16.1c-0.7-1.5-2-2.9-3.8-3.9c-2-1.1-4.1-1.6-6.1-0.3c-2,1.2-2.7,3.2-2.6,5.4c0.2,3.8,2,6.7,5.2,8.5
		c3.2,1.9,6.9,0.3,8-3.3C30.6,20.4,30.3,18.5,29.3,16.1 M14.9,20.2c-0.5-1.2-0.8-3.2-0.5-5.4c0.7-4.6,4.8-7.1,9.2-5.9
		c5.2,1.4,9.4,8.2,8.5,13.4c-0.8,4.8-5.4,7.4-9.9,5.4C18.8,26.3,16.6,24.2,14.9,20.2"/>
	<path class="st1" d="M29.3,16.1c-0.7-1.5-2-2.9-3.8-3.9c-2-1.1-4.1-1.6-6.1-0.3c-2,1.2-2.7,3.2-2.6,5.4c0.2,3.8,2,6.7,5.2,8.5
		c3.2,1.9,6.9,0.3,8-3.3C30.6,20.4,30.3,18.5,29.3,16.1z M14.9,20.2c-0.5-1.2-0.8-3.2-0.5-5.4c0.7-4.6,4.8-7.1,9.2-5.9
		c5.2,1.4,9.4,8.2,8.5,13.4c-0.8,4.8-5.4,7.4-9.9,5.4C18.8,26.3,16.6,24.2,14.9,20.2z"/>
	<path class="st0" d="M35.9,12.9c1.1,2.5,2.2,3.8,3.7,4.8c2.4,1.6,5.2,1.3,7.1-0.7c1-1.1,1.6-2.4,1.6-3.9c0.2-3.7-0.9-6.9-4-9.1
		c-2.8-2.1-6.3-1.2-7.9,1.8C35.1,8.3,35.1,10.9,35.9,12.9 M49.4,6.8c1.4,3.6,1.3,7.5-1.1,11.1c-2.2,3.3-6.4,3.9-9.7,1.7
		c-4.4-2.9-6.5-10.6-4-15.4c2.1-4.1,6.8-5.3,10.7-2.7C47.1,2.7,48.3,4.4,49.4,6.8"/>
	<path class="st1" d="M35.9,12.9c1.1,2.5,2.2,3.8,3.7,4.8c2.4,1.6,5.2,1.3,7.1-0.7c1-1.1,1.6-2.4,1.6-3.9c0.2-3.7-0.9-6.9-4-9.1
		c-2.8-2.1-6.3-1.2-7.9,1.8C35.1,8.3,35.1,10.9,35.9,12.9z M49.4,6.8c1.4,3.6,1.3,7.5-1.1,11.1c-2.2,3.3-6.4,3.9-9.7,1.7
		c-4.4-2.9-6.5-10.6-4-15.4c2.1-4.1,6.8-5.3,10.7-2.7C47.1,2.7,48.3,4.4,49.4,6.8z"/>
	<path class="st2" d="M48.5,74.3c12.6-5,23.6-14.5,23.8-28.5c0.2-9.2-5.3-18.9-15-21.3C38,19.6,9.8,43.4,24.7,61.7
		c4.4,5.4,12,7.7,18.9,6.9c8.1-0.9,14.8-5.8,17.9-13.1c0.9-2-1.9-4.6-2.9-2C54,64.4,38.6,68,29.1,60.6c-7.7-6-5.5-15.5,0.3-21.9
		c5.9-6.5,15.5-11.4,24.6-10.5c8.5,0.8,14.3,7.9,14.9,15.3c1.1,13.1-9.8,22-21.4,26.6C45.5,71,46.3,75.1,48.5,74.3"/>
	<path class="st3" d="M48.5,74.3c12.6-5,23.6-14.5,23.8-28.5c0.2-9.2-5.3-18.9-15-21.3C38,19.6,9.8,43.4,24.7,61.7
		c4.4,5.4,12,7.7,18.9,6.9c8.1-0.9,14.8-5.8,17.9-13.1c0.9-2-1.9-4.6-2.9-2C54,64.4,38.6,68,29.1,60.6c-7.7-6-5.5-15.5,0.3-21.9
		c5.9-6.5,15.5-11.4,24.6-10.5c8.5,0.8,14.3,7.9,14.9,15.3c1.1,13.1-9.8,22-21.4,26.6C45.5,71,46.3,75.1,48.5,74.3z"/>
</g>
<g>
	<path class="st2" d="M82.2,27.2h16.2c9.6,0,15.7,4.9,15.7,13.3v0.1c0,8.9-6.9,13.6-16.3,13.6h-5.2V65H82.1V27.2H82.2z M97.7,46
		c3.7,0,6-1.9,6-4.9V41c0-3.2-2.3-5-6-5h-4.9v10H97.7z"/>
	<path class="st2" d="M115.1,50.6v-0.1c0-8.5,6.1-15.3,14.7-15.3c10.1,0,14.7,7.4,14.7,16c0,0.6,0,1.4-0.1,2.1h-19.5
		c0.8,3.2,3.1,4.8,6.3,4.8c2.4,0,4.4-0.9,6.5-3l5.7,4.7c-2.8,3.6-6.9,5.9-12.7,5.9C121.6,65.7,115.1,59.6,115.1,50.6z M134.9,48
		c-0.4-3.2-2.3-5.3-5.1-5.3c-2.7,0-4.5,2.1-5.1,5.3H134.9z"/>
	<path class="st2" d="M149.3,56V44.1h-3.5v-8.3h3.5v-7.4h10.3v7.4h6.8v8.3h-6.8V54c0,2.1,0.9,2.9,2.8,2.9c1.4,0,2.6-0.4,3.9-1v8
		c-1.8,1-4.3,1.7-7.1,1.7C152.9,65.6,149.3,62.9,149.3,56z"/>
</g>
<path class="st0" d="M170.9,27.2h17.9c5.8,0,9.8,1.5,12.3,4.1c2.2,2.2,3.3,5.1,3.3,8.8v0.1c0,5.8-3.1,9.6-7.8,11.6l9,13.2h-12.1
	l-7.6-11.4h-0.1h-4.5V65h-10.4V27.2z M188.3,45.4c3.6,0,5.6-1.7,5.6-4.5v-0.1c0-3-2.2-4.5-5.7-4.5h-6.9v9.1H188.3z"/>
<path class="st0" d="M205.9,50.6v-0.1c0-8.5,6.1-15.3,14.7-15.3c10.1,0,14.7,7.4,14.7,16c0,0.6,0,1.4-0.1,2.1h-19.5
	c0.8,3.2,3.1,4.8,6.3,4.8c2.4,0,4.4-0.9,6.5-3l5.7,4.7c-2.8,3.6-6.9,5.9-12.7,5.9C212.4,65.7,205.9,59.6,205.9,50.6z M225.8,48
	c-0.4-3.2-2.3-5.3-5.1-5.3c-2.7,0-4.5,2.1-5.1,5.3H225.8z"/>
<path class="st0" d="M238.3,25.6h10.3v14.2c1.9-2.4,4.6-4.6,8.7-4.6c6.2,0,9.9,4.1,9.9,10.7V65h-10.3V49.2c0-3.2-1.7-4.9-4.1-4.9
	c-2.5,0-4.3,1.7-4.3,4.9V65h-10.3L238.3,25.6L238.3,25.6z"/>
<path class="st0" d="M269.9,50.6v-0.1c0-8.3,6.8-15.3,16.2-15.3c9.3,0,16.1,6.9,16.1,15.2v0.1c0,8.3-6.8,15.3-16.2,15.3
	C276.7,65.7,269.9,58.9,269.9,50.6z M292.2,50.6v-0.1c0-3.6-2.6-6.6-6.2-6.6c-3.7,0-6.1,3-6.1,6.5v0.1c0,3.6,2.6,6.6,6.2,6.6
	C289.8,57,292.2,54.1,292.2,50.6z"/>
<path class="st0" d="M305.1,35.8h10.3v4c1.9-2.4,4.6-4.6,8.7-4.6c3.9,0,6.9,1.7,8.4,4.8c2.5-2.9,5.5-4.8,9.8-4.8
	c6.2,0,10,3.9,10,10.7v19.2H342V49.2c0-3.2-1.6-4.9-4-4.9c-2.4,0-4.2,1.7-4.2,4.9v15.9h-10.3V49.2c0-3.2-1.6-4.9-4-4.9
	c-2.4,0-4.2,1.7-4.2,4.9v15.9H305L305.1,35.8L305.1,35.8z"/>
<path class="st0" d="M354.9,50.6v-0.1c0-8.5,6.1-15.3,14.7-15.3c10.1,0,14.7,7.4,14.7,16c0,0.6,0,1.4-0.1,2.1h-19.5
	c0.8,3.2,3.1,4.8,6.3,4.8c2.4,0,4.4-0.9,6.5-3l5.7,4.7c-2.8,3.6-6.9,5.9-12.7,5.9C361.3,65.7,354.9,59.6,354.9,50.6z M374.7,48
	c-0.4-3.2-2.3-5.3-5.1-5.3c-2.7,0-4.5,2.1-5.1,5.3H374.7z"/>
<path class="st0" d="M387.3,35.8h10.3v5.9c1.7-4,4.4-6.6,9.2-6.4v10.8h-0.9c-5.3,0-8.4,3.1-8.4,9.8V65h-10.3V35.8H387.3z"/>
<path class="st4" d="M191.8,93.8c-0.1,0.3-0.3,0.3-0.5,0.1c-0.4-0.5-0.7-1.4-0.3-3c0.8-2.8,3.6-8.6,6.3-12.8c-1-0.1-1.6-0.5-2-1.2
	c-0.2-0.3-0.1-0.5,0.3-0.5c2.6-0.3,4.9-1.6,6.9-1.6c1.6-0.1,2.9,0.4,3.6,2.5c0.6,1.8,0.2,3.7-0.9,5.2c-1.6,2.2-4.9,4.1-8.3,4.9
	c1.2,1.4,2.3,2.9,2.9,4.2c0.4,0.8,0.5,1.9,0.2,2.5c-0.2,0.2-0.3,0.3-0.5,0.1c-2-2.7-3.6-4.7-5-6.3C193.7,89.3,192.9,91.3,191.8,93.8
	z M198.1,81.3c-0.8,1.5-1.6,2.7-2.4,4.2c6.7-1.5,10.2-6,9.3-8.1c-0.7-1.7-3.7-0.1-5.7,0.4C199.3,78.7,198.9,79.8,198.1,81.3z
	 M207.9,93.3c2.5,0.1,4.8-2.3,6.1-4.3c0.2-0.2,0.4-0.2,0.5,0s0,1.1-0.5,1.9c-1.3,1.9-3.6,3.3-6,3.3c-3.9,0.1-5.2-3.8-3.2-7.7
	s5.1-5.5,6.6-4.6c0.8,0.5,1.3,0.9,1.8,1.6c0.5,0.7,0.3,2.6-1,4.2c-1.5,1.8-3.5,2.6-5.7,0.9C205.5,91.3,206.3,93.2,207.9,93.3z
	 M210.4,86.3c1-1.3,1.6-2.9,1.2-3.2c-0.6-0.5-3.2,1.3-4.6,4.2c-0.1,0.2-0.2,0.4-0.2,0.5C208.3,88.7,209.5,87.4,210.4,86.3z
	 M218,83.4c0.2-1.2,0.5-1.8,1.1-2.4c0.7-0.6,1.4-0.7,1.6-0.5c0.3,0.3,0.2,0.6-0.2,1.3c-0.1,0.2-0.2,0.4-0.3,0.6
	c-0.2,2.8,0.4,5.2,0.3,7.3c-0.1,1.2-0.3,2.5-1.4,3.2c2-0.8,3.3-2.6,4.1-4.2c0.2-0.3,0.5-0.2,0.6,0c0.1,0.3,0.1,1.1-0.4,2
	c-1.2,2.1-3.2,3.3-5.4,3.4c-1.8,0.1-3.5-0.4-4.5-2.3c-0.7-1.4-0.6-3.4,0.4-4.2c0.4-0.3,0.6-0.2,0.6,0.3c0,0.2,0,0.5,0.1,0.7
	C215.7,87,217.1,85,218,83.4z M214.8,90.3c0.5,1.8,1.3,3,2.4,2.7c1.4-0.4,0.9-5.2,0.8-7.7C217.1,87,215.9,88.7,214.8,90.3z
	 M234.8,89.1c0.2-0.4,0.5-0.3,0.6,0s0.1,1.1-0.4,2c-1.2,2.1-3.2,3.1-5.4,3.3c-2,0.1-3.2-0.2-4.3-1.1c-0.6-0.6-0.9-1.3-1-2
	c-1.4,2.6-3,5.7-4.5,9.1c-0.1,0.3-0.3,0.3-0.5,0.1c-0.5-0.6-0.6-1.5,0-3.4c0.9-3,6-12.6,8-15.2c0.3-0.4,0.6-0.3,0.7,0
	c0.2,0.4,0.2,0.9,0.2,1.4c1.3-1.2,3.1-2,4.5-0.6c1.5,1.6,0.8,4.3-0.3,6.8c-0.9,2-2,3.5-3.2,4.2C232,93.4,233.8,91.2,234.8,89.1z
	 M225.9,92.6c1,0.8,3-1.4,4.4-4.4c1.2-2.4,1.5-5,0.8-5.3c-0.7-0.4-2.6,1.2-4.1,3.5c-0.3,0.5-0.7,1.1-1,1.7
	C225.2,90.1,225,91.9,225.9,92.6z M253.5,94.2c-2.5,0-3.2-1.9-2.3-4.5c1-3,3.7-6.2,3.2-6.4c-0.4-0.1-2.1,0.7-4,2.8
	c-1.8,1.9-3.2,4.9-4.5,7.7c-0.1,0.2-0.3,0.4-0.6,0.1c-0.5-0.6-0.8-1.6-0.2-3.1c0.3-0.9,1-2.5,1.9-4.2c-0.8,0.5-1.8,0.8-2.8,0.8
	c-0.6,2.6-2.6,5.7-4.8,6.5c-1.1,0.4-2.7,0.3-3.8-1.3c-1.3-1.8-0.9-4.5,0.5-6.9c1.2-2.1,3-3.8,4.9-4c0.9-0.1,1.4,0.2,2,1
	c0.7,1,1.6,1.2,1.5,3.4c0,0.2,0,0.4,0,0.5c1.9,0,3.9-2.3,5.6-4.8c0.2-0.3,0.5-0.3,0.6-0.1c0.5,0.8,0.5,1.8,0.1,2.9
	c1.4-1.4,3.4-3.1,4.4-3c1,0.1,2,1.7,1.2,3.2c-0.7,1.4-2.1,3.6-2.8,5.2c-0.8,1.7-0.6,3.1,0.5,3.1c1.2,0,2.7-2,3.8-4.2
	c0.1-0.2,0.4-0.2,0.5,0c0.2,0.4,0.2,1-0.3,1.9C257.2,92.7,255.3,94.2,253.5,94.2z M240.2,84c-0.9,0.7-1.7,1.8-2.4,2.9
	c-1.3,2.3-1.8,5.1-0.9,5.8s2.7-0.4,4.2-3.1c0.5-1,0.9-1.8,1.1-2.6C241.1,86.4,240.2,85.2,240.2,84z M242.6,84
	c-0.2-1-0.8-0.8-0.9,0.1c-0.1,0.7,0.1,1.6,0.7,2C242.6,85.3,242.7,84.5,242.6,84z M262.1,83.4c0.2-1.2,0.5-1.8,1.1-2.4
	c0.7-0.6,1.4-0.7,1.6-0.5c0.3,0.3,0.2,0.6-0.2,1.3c-0.1,0.2-0.2,0.4-0.3,0.6c-0.2,2.8,0.4,5.2,0.3,7.3c-0.1,1.2-0.3,2.5-1.4,3.2
	c2-0.8,3.3-2.6,4.1-4.2c0.2-0.3,0.5-0.2,0.6,0c0.1,0.3,0.1,1.1-0.4,2c-1.2,2.1-3.2,3.3-5.4,3.4c-1.8,0.1-3.5-0.4-4.5-2.3
	c-0.7-1.4-0.6-3.4,0.4-4.2c0.4-0.3,0.6-0.2,0.6,0.3c0,0.2,0,0.5,0.1,0.7C259.8,87,261.2,85,262.1,83.4z M258.8,90.3
	c0.5,1.8,1.3,3,2.4,2.7c1.4-0.4,0.9-5.2,0.8-7.7C261.1,87,260,88.7,258.8,90.3z M266.7,89.7c0.8-2.2,2.8-5.8,3.9-7.4
	c0.3-0.4,0.5-0.5,0.7-0.2c0.5,0.5,0.7,1.8,0,3.3c-0.6,1.3-1.9,3.4-2.6,4.9c-0.7,1.8-0.7,3,0.3,2.9c1.4-0.1,3.1-2.1,4-4.2
	c0.2-0.3,0.4-0.2,0.5,0c0.2,0.5,0.2,1.1-0.2,1.9c-0.9,1.9-2.8,3.2-4.5,3.2C266.4,94.1,265.8,92.2,266.7,89.7z M273.5,81.7
	c-0.4,0.4-1.3,0.3-1.7-0.5c-0.5-0.8-0.3-1.7,0.2-2.3c0.5-0.5,1.4-0.2,1.8,0.7C274.1,80.5,273.9,81.3,273.5,81.7z M276.9,94
	c-1.6,0-2.7-0.8-3.2-2.2c-0.3,0.6-0.6,1.4-0.9,2c-0.1,0.3-0.3,0.3-0.5,0.1c-0.5-0.6-0.8-1.5-0.2-3.4c0.8-2.5,6.8-13.8,8.9-16.8
	c0.3-0.4,0.5-0.4,0.8,0c0.5,0.9,0.5,2.2-0.8,4.5c-0.5,0.9-1.8,3-2.7,4.6c0.9-0.8,1.8-1.3,2.6-1.3c2.6,0,2.7,3.6,1,7.3
	C280.5,92.3,278.6,94,276.9,94z M278.2,84.2c-1.4,1.4-2.8,4-4,6.3c0.1,0.9,0.5,1.9,1.3,2c1.1,0.2,2.5-0.7,4.2-4.2
	c1.7-3.4,1.4-5.3,0.7-5.4C279.8,82.9,279.1,83.3,278.2,84.2z M286,93.2c1.5,0.1,3.6-2.1,4.8-4.4c0.2-0.4,0.5-0.4,0.7,0
	c0.2,0.5,0,1.2-0.3,1.9c-0.4,0.9-2.7,3.4-5.1,3.4c-2.1-0.1-3.2-1.5-2.5-4.8c1.1-5.3,4.6-10.8,7.7-14.1c0.5-0.5,0.9-0.5,1.3-0.2
	c0.9,0.8,1.1,1.9,0.7,3.4c-0.9,3.8-4.4,7.4-7.1,9.2C284.9,90.6,284.6,93.1,286,93.2z M292.2,77.7c-0.4-0.2-2.7,3.1-4.8,7.1
	c-0.3,0.5-0.5,1-0.7,1.5C290.9,82.9,292.6,78,292.2,77.7z M294.4,93.3c2.5,0.1,4.8-2.3,6.1-4.3c0.2-0.2,0.4-0.2,0.5,0
	c0.1,0.2,0,1.1-0.5,1.9c-1.3,1.9-3.6,3.3-6,3.3c-3.9,0.1-5.2-3.8-3.2-7.7s5.1-5.5,6.6-4.6c0.8,0.5,1.3,0.9,1.8,1.6
	c0.5,0.7,0.3,2.6-1,4.2c-1.5,1.8-3.5,2.6-5.7,0.9C292,91.3,292.8,93.2,294.4,93.3z M296.9,86.3c1-1.3,1.6-2.9,1.2-3.2
	c-0.6-0.5-3.2,1.3-4.6,4.2c-0.1,0.2-0.2,0.4-0.2,0.5C294.8,88.7,296,87.4,296.9,86.3z M307.9,93.8c-0.1,0.3-0.3,0.3-0.5,0.1
	c-0.4-0.5-0.7-1.4-0.3-3c0.8-2.8,3.6-8.6,6.3-12.8c-1-0.1-1.6-0.5-2-1.2c-0.2-0.3-0.1-0.5,0.3-0.5c2.6-0.3,4.9-1.6,6.9-1.6
	c1.6-0.1,2.9,0.4,3.6,2.5c0.6,1.8,0.2,3.7-0.9,5.2c-1.6,2.2-4.9,4.1-8.3,4.9c1.2,1.4,2.3,2.9,2.9,4.2c0.4,0.8,0.5,1.9,0.2,2.5
	c-0.2,0.2-0.3,0.3-0.5,0.1c-2-2.7-3.6-4.7-5-6.3C309.8,89.3,308.9,91.3,307.9,93.8z M314.2,81.3c-0.8,1.5-1.6,2.7-2.4,4.2
	c6.7-1.5,10.2-6,9.3-8.1c-0.7-1.7-3.7-0.1-5.7,0.4C315.3,78.7,315,79.8,314.2,81.3z M323.9,93.3c2.5,0.1,4.8-2.3,6.1-4.3
	c0.2-0.2,0.4-0.2,0.5,0c0.1,0.2,0,1.1-0.5,1.9c-1.3,1.9-3.6,3.3-6,3.3c-3.9,0.1-5.2-3.8-3.2-7.7s5.1-5.5,6.6-4.6
	c0.8,0.5,1.3,0.9,1.8,1.6c0.5,0.7,0.3,2.6-1,4.2c-1.5,1.8-3.5,2.6-5.7,0.9C321.6,91.3,322.3,93.2,323.9,93.3z M326.5,86.3
	c1-1.3,1.6-2.9,1.2-3.2c-0.6-0.5-3.2,1.3-4.6,4.2c-0.1,0.2-0.2,0.4-0.2,0.5C324.3,88.7,325.6,87.4,326.5,86.3z M337.2,94.2
	c-2.6,0-3.2-1.9-2.3-4.5c1-3,3.7-6.1,3.2-6.4c-0.4-0.2-3.8,1.8-5.5,4.7c-1.1,1.8-2.2,3.9-3,5.8c-0.1,0.3-0.3,0.3-0.5,0.1
	c-0.5-0.5-0.8-1.4-0.1-3.2c1.1-3.1,7.4-13.8,9.9-16.9c0.3-0.4,0.6-0.3,0.7,0c0.4,0.9,0.3,2.4-0.9,4.3c-0.7,1.2-2.4,3.7-3.7,5.7
	c1.3-1.2,2.8-2.2,3.7-2.1c1,0.1,2,1.6,1.2,3.2c-0.7,1.3-2.1,3.6-2.8,5.2c-0.8,1.8-0.6,3.2,0.5,3.1c1.3-0.1,2.9-2.3,3.9-4.2
	c0.1-0.3,0.4-0.3,0.5,0c0.2,0.3,0.2,1-0.3,1.9C340.8,92.6,339,94.2,337.2,94.2z M369.9,91c-0.9,1.7-2.8,3.3-4.5,3.2
	c-2.6,0-3.5-2.1-2.5-4.6c1.1-2.6,3.8-5.9,3.4-6.1c-0.2-0.1-1.3,0.3-3.3,2.3c-2.5,2.5-4,5.4-5.3,8.2c-0.2,0.4-0.4,0.5-0.7,0.2
	c-0.5-0.5-0.9-1.6,0-3.8c1-2.5,4.2-6.7,3.7-7c-0.3-0.1-1.8,0.7-3.8,2.8c-1.8,1.9-3.2,4.7-4.5,7.6c-0.1,0.2-0.3,0.3-0.6,0.1
	c-0.6-0.5-0.8-1.6-0.3-3.1c0.3-1,1.1-2.6,2-4.3c-0.9,0.6-1.8,0.9-2.8,0.8c-0.6,2.6-2.5,5.8-4.8,6.5c-1.1,0.4-2.7,0.3-3.9-1.3
	c-1.3-1.8-0.9-4.5,0.5-6.9c1.2-2,3-3.8,4.9-4c0.9-0.1,1.4,0.2,2,1c0.7,0.9,1.6,1.1,1.5,3.4c0,0.2,0,0.3-0.1,0.5c2,0,3.9-2.3,5.5-4.8
	c0.2-0.3,0.5-0.3,0.7,0c0.5,0.8,0.4,2-0.1,3.2c1.4-1.5,3.6-3.3,4.7-3.3c1,0,1.6,1.6,1.2,3c1.4-1.4,3.5-2.8,4.5-2.8
	c1.1,0,1.3,1.8,0.7,3.3c-0.6,1.4-2,3.4-2.8,4.9c-0.9,1.7-0.5,3.2,0.7,3.1c1.2-0.1,2.6-2,3.8-4.2c0.2-0.3,0.4-0.2,0.5,0
	C370.3,89.3,370.3,90.3,369.9,91z M346.7,84c-0.8,0.7-1.7,1.7-2.4,2.9c-1.3,2.3-1.7,5.1-0.9,5.8s2.7-0.4,4.2-3.1
	c0.5-0.9,0.9-1.8,1.1-2.6C347.6,86.3,346.7,85.2,346.7,84z M349.1,84c-0.2-1-0.8-0.8-0.9,0.1c-0.1,0.6,0.1,1.5,0.7,2
	C349.1,85.3,349.2,84.6,349.1,84z M369.2,89.7c0.8-2.2,2.8-5.8,3.9-7.4c0.3-0.4,0.5-0.5,0.7-0.2c0.5,0.5,0.7,1.8,0,3.3
	c-0.6,1.3-1.9,3.4-2.6,4.9c-0.7,1.8-0.7,3,0.3,2.9c1.4-0.1,3.1-2.1,4-4.2c0.2-0.3,0.4-0.2,0.5,0c0.2,0.5,0.2,1.1-0.2,1.9
	c-0.9,1.9-2.8,3.2-4.5,3.2C369,94.1,368.4,92.2,369.2,89.7z M376.1,81.7c-0.4,0.4-1.3,0.3-1.7-0.5c-0.5-0.8-0.3-1.7,0.2-2.3
	c0.5-0.5,1.4-0.2,1.8,0.7C376.7,80.5,376.4,81.3,376.1,81.7z M384.7,81.7c1,0.2,2,1.6,1.2,3.2c-0.6,1.3-2.1,3.6-2.8,5.2
	c-0.8,1.8-0.6,3.2,0.5,3.1c1.3-0.1,2.7-2.1,3.9-4.2c0.2-0.3,0.4-0.3,0.5,0c0.2,0.3,0.2,1-0.3,1.9c-0.8,1.7-2.7,3.3-4.5,3.3
	c-2.6,0-3.2-1.9-2.3-4.5c1-3,3.7-6.2,3.1-6.5c-0.3-0.1-2.1,0.7-4,2.9c-1.8,2-3.1,4.9-4.5,7.8c-0.1,0.3-0.3,0.4-0.6,0.1
	c-0.6-0.6-0.8-1.6-0.3-3.1c0.6-1.9,3-6.2,4.9-9c0.2-0.3,0.5-0.3,0.6,0c0.5,0.8,0.4,1.8,0.1,2.9C381.6,83.2,383.7,81.6,384.7,81.7z
	 M393.7,94.9c-1.7,4.1-3.8,8.9-6.3,9.9c-0.6,0.2-1.2,0.2-1.8-0.6c-0.6-0.9-1.2-2-0.6-3.8c0.9-2.7,3.5-4.6,6.5-5.8
	c0.3-0.7,0.6-1.4,0.9-2.1c-0.9,0.9-2,1.5-3.1,1.5c-2.8,0-3.4-3.8-0.9-7.5c2.4-3.5,4.9-4.9,6.4-4.9c1.2,0,1.8,0.9,1.8,2
	c0.4-0.6,0.7-1.2,1-1.7c0.2-0.4,0.5-0.5,0.8-0.2c0.5,0.5,0.7,1.9-0.1,3.4c-0.9,1.8-2.8,5.5-4.1,8.5c2.6-1.3,4.2-3,5.5-4.6
	c0.2-0.2,0.5-0.2,0.5,0.1c0.1,0.3-0.1,0.9-0.6,1.8C398.5,92.8,396.3,94,393.7,94.9z M386.2,103.1c0.4,0.6,2.8-2.6,4.8-7.2
	C387.1,98.2,385.7,102.4,386.2,103.1z M395.3,83.2c-0.9-0.1-3.2,1.9-4.9,4.5c-1.6,2.6-2,5.3-0.8,5.3s2.7-1.9,4.3-4.6
	C396,85.2,396.2,83.3,395.3,83.2z"/>
<g>
	<path class="st0" d="M225.8,115.8v4.2h-2.6v-12.1h4.2c3,0,4.5,1.3,4.5,3.8c0,1.2-0.5,2.2-1.4,3s-2,1.1-3.4,1.1H225.8z M225.8,109.9
		v3.9h1.1c1.5,0,2.3-0.7,2.3-2c0-1.3-0.8-1.9-2.2-1.9H225.8z"/>
	<path class="st0" d="M232.5,115.8c0-1.4,0.4-2.5,1.3-3.4s2-1.2,3.4-1.2c1.4,0,2.5,0.4,3.3,1.2s1.2,1.9,1.2,3.2
		c0,1.4-0.4,2.5-1.3,3.4s-2,1.3-3.4,1.3c-1.4,0-2.5-0.4-3.3-1.2S232.5,117.1,232.5,115.8z M235,115.7c0,1.7,0.7,2.6,2.1,2.6
		c1.3,0,2-0.9,2-2.7c0-1.7-0.7-2.5-2-2.5c-0.7,0-1.2,0.2-1.5,0.7S235,114.9,235,115.7z"/>
	<path class="st0" d="M255.8,111.4l-2.5,8.6h-2.6l-1.3-5.2c-0.1-0.3-0.1-0.7-0.1-1.1h-0.1c0,0.4-0.1,0.8-0.2,1l-1.4,5.2h-2.6
		l-2.5-8.6h2.6l1.3,5.7c0.1,0.2,0.1,0.5,0.1,0.9h0.1c0-0.4,0.1-0.7,0.1-1l1.5-5.7h2.4l1.4,5.7c0,0.2,0.1,0.5,0.1,1h0.1
		c0-0.3,0.1-0.6,0.1-1l1.2-5.7H255.8z"/>
	<path class="st0" d="M264.7,116.4H259c0.1,1.3,0.9,2,2.4,2c1,0,1.8-0.2,2.5-0.7v1.9c-0.8,0.4-1.8,0.7-3.1,0.7
		c-1.4,0-2.4-0.4-3.2-1.2s-1.1-1.9-1.1-3.2c0-1.4,0.4-2.5,1.2-3.4s1.8-1.3,3.1-1.3c1.2,0,2.2,0.4,2.9,1.1s1,1.8,1,3.1V116.4z
		 M262.4,114.8c0-1.3-0.5-1.9-1.6-1.9c-0.4,0-0.8,0.2-1.1,0.5s-0.5,0.8-0.6,1.4H262.4z"/>
	<path class="st0" d="M271.9,113.7c-0.3-0.2-0.7-0.3-1.1-0.3c-0.6,0-1,0.2-1.4,0.7s-0.5,1-0.5,1.8v4.2h-2.5v-8.6h2.5v1.6h0
		c0.4-1.2,1.2-1.8,2.3-1.8c0.3,0,0.5,0,0.7,0.1V113.7z"/>
	<path class="st0" d="M280.7,116.4H275c0.1,1.3,0.9,2,2.4,2c1,0,1.8-0.2,2.5-0.7v1.9c-0.8,0.4-1.8,0.7-3.1,0.7
		c-1.4,0-2.4-0.4-3.2-1.2s-1.1-1.9-1.1-3.2c0-1.4,0.4-2.5,1.2-3.4s1.8-1.3,3.1-1.3c1.2,0,2.2,0.4,2.9,1.1s1,1.8,1,3.1V116.4z
		 M278.4,114.8c0-1.3-0.5-1.9-1.6-1.9c-0.4,0-0.8,0.2-1.1,0.5s-0.5,0.8-0.6,1.4H278.4z"/>
	<path class="st0" d="M290.7,120h-2.5v-1.2h0c-0.6,1-1.5,1.4-2.7,1.4c-1.1,0-2-0.4-2.6-1.2s-1-1.8-1-3.2c0-1.4,0.4-2.6,1.1-3.4
		s1.7-1.3,2.8-1.3c1.1,0,1.9,0.4,2.4,1.2h0v-5.2h2.5V120z M288.2,115.1c0-0.6-0.2-1.1-0.5-1.4s-0.8-0.6-1.3-0.6
		c-0.6,0-1.1,0.2-1.4,0.7s-0.5,1.1-0.5,2c0,0.8,0.2,1.4,0.5,1.8s0.8,0.6,1.4,0.6c0.6,0,1-0.2,1.4-0.7s0.5-1,0.5-1.8V115.1z"/>
	<path class="st0" d="M300.3,119v1h-2.5v-12.8h2.5v5.5h0c0.7-1,1.6-1.5,2.8-1.5c1.1,0,1.9,0.4,2.6,1.1s0.9,1.8,0.9,3.1
		c0,1.4-0.4,2.6-1.1,3.5s-1.6,1.3-2.8,1.3C301.7,120.2,300.9,119.8,300.3,119L300.3,119z M300.3,116.3c0,0.6,0.2,1,0.5,1.4
		s0.8,0.6,1.3,0.6c0.6,0,1.1-0.2,1.5-0.7s0.5-1.2,0.5-2.1c0-0.7-0.2-1.3-0.5-1.7s-0.8-0.6-1.4-0.6c-0.6,0-1,0.2-1.4,0.6
		s-0.6,1-0.6,1.6V116.3z"/>
	<path class="st0" d="M316.5,111.4l-3.6,9.4c-0.8,2.2-2.1,3.3-3.7,3.3c-0.7,0-1.2-0.1-1.5-0.2v-2c0.3,0.2,0.7,0.3,1.1,0.3
		c0.7,0,1.2-0.3,1.5-1l0.5-1.1l-3.5-8.6h2.8l1.7,5.4c0.1,0.3,0.2,0.7,0.2,1.1h0c0-0.3,0.1-0.6,0.3-1.1l1.7-5.4H316.5z"/>
	<path class="st0" d="M333.1,120h-2.8l-0.9-2.8H325l-0.9,2.8h-2.8l4.4-12.1h3L333.1,120z M328.8,115.3l-1.4-4.2
		c-0.1-0.3-0.2-0.6-0.2-1.1h-0.1c0,0.4-0.1,0.7-0.2,1l-1.4,4.2H328.8z"/>
	<path class="st0" d="M342.6,120h-2.5v-4.8c0-1.4-0.5-2.1-1.5-2.1c-0.5,0-0.9,0.2-1.2,0.6s-0.5,0.8-0.5,1.4v4.9h-2.5v-8.6h2.5v1.4h0
		c0.6-1.1,1.6-1.6,2.8-1.6c1.9,0,2.9,1.2,2.9,3.6V120z"/>
	<path class="st0" d="M344.5,108.6c0-0.4,0.1-0.7,0.4-0.9s0.6-0.4,1.1-0.4c0.4,0,0.8,0.1,1.1,0.4s0.4,0.6,0.4,0.9
		c0,0.4-0.1,0.7-0.4,0.9s-0.6,0.4-1.1,0.4c-0.4,0-0.8-0.1-1-0.4S344.5,109,344.5,108.6z M344.7,120v-8.6h2.5v8.6H344.7z"/>
	<path class="st0" d="M363.1,120h-2.5v-4.9c0-1.3-0.5-2-1.4-2c-0.4,0-0.8,0.2-1.1,0.6s-0.4,0.9-0.4,1.5v4.8H355v-5
		c0-1.3-0.5-1.9-1.4-1.9c-0.5,0-0.9,0.2-1.1,0.6s-0.4,0.9-0.4,1.5v4.8h-2.5v-8.6h2.5v1.4h0c0.3-0.5,0.7-0.9,1.2-1.2s1-0.4,1.6-0.4
		c1.2,0,2,0.5,2.5,1.6c0.7-1.1,1.6-1.6,2.9-1.6c1.9,0,2.8,1.2,2.8,3.5V120z"/>
	<path class="st0" d="M365.4,111.9c0.4-0.2,0.9-0.4,1.6-0.5s1.2-0.2,1.7-0.2c2.4,0,3.6,1.2,3.6,3.6v5.2h-2.4v-1.3h0
		c-0.6,1-1.5,1.5-2.6,1.5c-0.8,0-1.5-0.2-2-0.7s-0.7-1.1-0.7-1.9c0-1.7,1-2.6,3-2.9l2.4-0.3c0-1-0.5-1.5-1.6-1.5c-1,0-2,0.3-2.9,0.9
		V111.9z M368.3,116.1c-0.9,0.1-1.4,0.5-1.4,1.2c0,0.3,0.1,0.6,0.3,0.8s0.5,0.3,0.9,0.3c0.5,0,0.9-0.2,1.3-0.5s0.5-0.8,0.5-1.4v-0.6
		L368.3,116.1z"/>
	<path class="st0" d="M379.5,119.9c-0.4,0.2-1,0.3-1.7,0.3c-1.8,0-2.8-1-2.8-2.9v-4.1h-1.4v-1.9h1.4v-1.9l2.5-0.7v2.6h2v1.9h-2v3.6
		c0,0.9,0.4,1.4,1.1,1.4c0.3,0,0.6-0.1,0.9-0.2V119.9z"/>
	<path class="st0" d="M388.7,116.4H383c0.1,1.3,0.9,2,2.4,2c1,0,1.8-0.2,2.5-0.7v1.9c-0.8,0.4-1.8,0.7-3.1,0.7
		c-1.4,0-2.4-0.4-3.2-1.2s-1.1-1.9-1.1-3.2c0-1.4,0.4-2.5,1.2-3.4s1.8-1.3,3.1-1.3c1.2,0,2.2,0.4,2.9,1.1s1,1.8,1,3.1V116.4z
		 M386.3,114.8c0-1.3-0.5-1.9-1.6-1.9c-0.4,0-0.8,0.2-1.1,0.5s-0.5,0.8-0.6,1.4H386.3z"/>
	<path class="st0" d="M390.1,117.7c0.9,0.5,1.7,0.8,2.5,0.8c1,0,1.6-0.3,1.6-0.8c0-0.4-0.4-0.7-1.3-1c-1.1-0.3-1.8-0.7-2.2-1.1
		s-0.6-1-0.6-1.7c0-0.8,0.3-1.5,1-2s1.6-0.7,2.7-0.7c0.8,0,1.6,0.1,2.3,0.4v2c-0.7-0.4-1.4-0.6-2.2-0.6c-0.4,0-0.7,0.1-1,0.2
		s-0.4,0.3-0.4,0.6c0,0.4,0.4,0.7,1.1,1c0.8,0.3,1.4,0.5,1.8,0.7s0.7,0.5,0.9,0.8s0.3,0.8,0.3,1.2c0,0.9-0.4,1.6-1.1,2.1
		s-1.7,0.7-2.9,0.7c-0.9,0-1.8-0.1-2.6-0.4V117.7z"/>
</g>
</svg>
